<svg width="262" height="44" viewBox="0 0 131 22" fill="none" xmlns="http://www.w3.org/2000/svg">
<path fill-rule="evenodd" clip-rule="evenodd" d="M21.9639 21.2724C22.245 21.2258 22.5968 21.1675 23.0748 21.1733L23.0769 21.1721C23.6055 21.1775 24.1044 21.3066 24.5482 21.8254L12.0482 0.174805L0 21.5617C1.63549 20.7594 3.86027 19.9778 6.66638 20.4582C7.44621 20.5923 7.89462 20.6923 8.20424 20.7612C8.72687 20.8777 8.85404 20.906 9.51221 20.8623C10.5616 20.7949 12.7274 19.9911 13.8209 18.7001C14.482 17.9195 14.9512 18.7 15.3967 19.4412C15.688 19.9259 15.9692 20.3937 16.2873 20.3971C16.567 20.3983 16.6219 20.3246 16.8793 19.9787C16.9123 19.9345 16.9485 19.8859 16.9889 19.8323C17.3456 19.3601 18.7336 19.5942 19.316 21.243C19.316 21.243 19.3843 20.5113 20.1861 20.4951C20.6724 20.4852 20.8894 20.7832 21.0654 21.0249C21.1796 21.1817 21.2766 21.3149 21.4186 21.3248C21.5755 21.3367 21.7491 21.308 21.9639 21.2724Z" fill="black"></path>
<path fill-rule="evenodd" clip-rule="evenodd" d="M39.0208 11.7662V16.1139H40.2783V6.44749H39.0208V10.6774H34.3433V6.44749H33.0858V16.1165H34.3433V11.7662H39.0208ZM49.3458 16.2779C51.6258 16.2779 52.9883 14.9482 52.9883 12.7321V6.44749H51.7308V12.6373C51.7308 14.1694 50.8283 15.0814 49.3458 15.0814C47.8633 15.0814 46.9733 14.1668 46.9733 12.6373V6.44749H45.7158V12.7321C45.7158 14.9482 47.0658 16.2779 49.3458 16.2779ZM59.6433 16.1165V9.64487V9.64231L62.7083 13.4546L65.7883 9.64231V16.1139H67.0058V6.28609H66.9933L62.7083 11.6432L58.4383 6.28609H58.4258V16.1165H59.6433ZM86.2633 9.42966L92.4208 16.2779V16.2753H92.4333V6.44749H91.1758V13.1343L85.0183 6.28609H85.0058V16.1165H86.2633V9.42966ZM107.016 11.2845C107.016 8.45098 104.881 6.28865 102.181 6.28865C99.4408 6.28865 97.3458 8.45098 97.3458 11.2845C97.3458 14.1181 99.4433 16.2805 102.181 16.2805C104.918 16.2805 107.016 14.1181 107.016 11.2845ZM105.731 11.2845C105.731 13.4725 104.226 15.084 102.181 15.084C100.138 15.084 98.6183 13.4725 98.6183 11.2845C98.6183 9.0966 100.138 7.4851 102.181 7.4851C104.223 7.4851 105.731 9.0966 105.731 11.2845ZM111.928 6.44749V16.1165H114.693C117.693 16.1165 119.686 14.1822 119.686 11.282C119.686 8.3818 117.668 6.44749 114.641 6.44749H111.928ZM113.186 15.0302V7.53891H114.626C116.891 7.53891 118.398 9.0428 118.398 11.2845C118.398 13.5263 116.906 15.0302 114.678 15.0302H113.186ZM124.598 6.44749V16.1088H130.586V15.0225H125.856V11.7611H129.681V10.6748H125.856V7.53378H130.388V6.44749H124.598ZM72.5583 14.8714L75.9858 8.78916L79.4133 14.8714L81.5233 16.119L75.9858 6.29121L70.4483 16.119L72.5583 14.8714Z" fill="black" stroke="black" stroke-width="0.8" paint-order="stroke"></path>
</svg>