<svg width="24" height="24" viewBox="0 0 24 24" fill="none" xmlns="http://www.w3.org/2000/svg">
<rect width="24" height="24" rx="6" fill="#DC2626"/>
<path fill-rule="evenodd" clip-rule="evenodd" d="M12.7686 3.23677C12.5162 3.20957 12.2597 3.19562 12 3.19562C11.7403 3.19562 11.4839 3.20957 11.2314 3.23677C10.8548 3.27734 10.4869 3.34739 10.1302 3.44457C7.35604 4.20033 5.25514 6.59693 4.92667 9.53151C4.90965 9.68357 4.7832 9.80177 4.6302 9.80177H3.31618H2.50378C2.34849 9.80177 2.21987 9.92325 2.21586 10.0785C2.21364 10.1645 2.21252 10.2508 2.21252 10.3374C2.21252 10.5171 2.21735 10.6957 2.22684 10.873C2.38854 13.8912 3.90856 16.5472 6.18451 18.2367C6.26002 18.2928 6.30548 18.3808 6.30548 18.4749V20.5794C6.30548 20.7407 6.43629 20.8716 6.59764 20.8716H17.4024C17.5638 20.8716 17.6946 20.7407 17.6946 20.5794V18.4749C17.6946 18.3808 17.74 18.2928 17.8155 18.2367C20.0915 16.5472 21.6115 13.8912 21.7732 10.873C21.7827 10.6957 21.7875 10.5171 21.7875 10.3374C21.7875 10.2508 21.7864 10.1645 21.7842 10.0785C21.7802 9.92324 21.6516 9.80177 21.4963 9.80177H20.6839H19.3699C19.2169 9.80177 19.0904 9.68357 19.0734 9.53151C18.7449 6.59693 16.644 4.20033 13.8699 3.44458C13.5131 3.34739 13.1453 3.27735 12.7686 3.23677ZM6.29152 9.80177C6.12015 9.80177 5.98498 9.65463 6.00875 9.48492C6.30465 7.37248 7.68418 5.60898 9.56526 4.77842C9.76202 4.69154 9.96977 4.85508 9.9473 5.06899C9.79041 6.56286 9.65901 8.09306 9.55836 9.5295C9.54762 9.6828 9.42025 9.80177 9.26658 9.80177H6.29152ZM11.0766 4.55638C11.0911 4.42483 11.1925 4.31902 11.324 4.30435C11.546 4.2796 11.7715 4.26689 12 4.26689C12.2285 4.26689 12.4541 4.2796 12.676 4.30435C12.8076 4.31902 12.9089 4.42483 12.9235 4.55638C13.105 6.19507 13.2556 7.89949 13.3685 9.48971C13.3805 9.6585 13.2466 9.80177 13.0774 9.80177H10.9227C10.7535 9.80177 10.6196 9.6585 10.6316 9.48971C10.7444 7.89949 10.8951 6.19507 11.0766 4.55638ZM14.0527 5.06899C14.0303 4.85508 14.238 4.69154 14.4348 4.77842C16.3159 5.60897 17.6954 7.37248 17.9913 9.48492C18.0151 9.65463 17.8799 9.80177 17.7085 9.80177H14.7335C14.5798 9.80177 14.4524 9.6828 14.4417 9.5295C14.341 8.09306 14.2096 6.56286 14.0527 5.06899ZM8.88944 15.5453C9.11859 15.6834 9.39162 15.4325 9.35548 15.1674C9.33915 15.0476 9.33071 14.9253 9.33071 14.801C9.33071 13.8604 9.37378 12.6028 9.45366 11.1825C9.4631 11.0147 9.32971 10.873 9.16158 10.873H6.29152C6.12015 10.873 5.98498 11.0202 6.00875 11.1899C6.26793 13.0403 7.35858 14.6229 8.88944 15.5453ZM10.3984 14.801C10.3984 15.6885 11.1155 16.4079 12 16.4079C12.8846 16.4079 13.6016 15.6885 13.6016 14.801C13.6016 13.8609 13.5573 12.5885 13.475 11.1479C13.4662 10.9935 13.3383 10.873 13.1837 10.873H10.8164C10.6618 10.873 10.5339 10.9935 10.5251 11.1479C10.4428 12.5885 10.3984 13.8609 10.3984 14.801ZM12 17.4792C8.34039 17.4792 5.32581 14.7083 4.92669 11.1435C4.90967 10.9915 4.7832 10.873 4.6302 10.873H3.6265C3.45823 10.873 3.32428 11.015 3.34032 11.1825C3.5603 13.4798 4.66772 15.5169 6.31454 16.9446C6.60604 17.1974 6.91444 17.431 7.23781 17.6436C7.32159 17.6987 7.37321 17.7916 7.37321 17.8919V18.993V19.5081C7.37321 19.6695 7.50401 19.8003 7.66537 19.8003H9.37537H12H14.6247H16.3347C16.496 19.8003 16.6268 19.6695 16.6268 19.5081V18.993V17.8919C16.6268 17.7916 16.6785 17.6987 16.7622 17.6436C17.0856 17.431 17.394 17.1974 17.6855 16.9446C19.3323 15.5169 20.4398 13.4798 20.6597 11.1825C20.6758 11.015 20.5418 10.873 20.3736 10.873H19.3699C19.2169 10.873 19.0904 10.9915 19.0734 11.1435C18.6742 14.7083 15.6596 17.4792 12 17.4792ZM15.1106 15.5453C14.8815 15.6834 14.6084 15.4325 14.6446 15.1674C14.6609 15.0476 14.6693 14.9253 14.6693 14.801C14.6693 13.8604 14.6263 12.6028 14.5464 11.1825C14.5369 11.0147 14.6703 10.873 14.8385 10.873H17.7085C17.8799 10.873 18.0151 11.0202 17.9913 11.1899C17.7321 13.0403 16.6415 14.6229 15.1106 15.5453Z" fill="#FAFAFA"/>
</svg>
